# xmcd
#
# Track frame offsets:
#	150
#	17179
#	24761
#	36024
#	53047
#	70527
#	88780
#	102884
#	114153
#	130580
#	148079
#	170840
#	184452
#	186685
#	203867
#	219938
#	237670
#	259387
#	277015
#	293879
#	307675
#
# Disc length: 4354 seconds
#
# Revision: 0
# Processed by: cddbd v1.4PL0 Copyright (c) Steve Scherf et al.
# Submitted via: dBpowerAMP V4.0
#
DISCID=38110015
DTITLE=Hasse Andersson - Änglahund
DYEAR=1900
DGENRE=
TTITLE0=Änglahund
TTITLE1=Min gamla gitarr
TTITLE2=Skomagare Anton
TTITLE3=Boots och nya eans
TTITLE4=Åh, nej!
TTITLE5=Om ett hus kunde tala
TTITLE6=Sommardansen
TTITLE7=Samling i köket
TTITLE8=Du är min vän
TTITLE9=Vinterepos
TTITLE10=North to Alaska
TTITLE11=En liten Elin
TTITLE12=En gång var himlen mycket nära
TTITLE13=Kräftfisket
TTITLE14=Höstens sista blomma
TTITLE15=Utvikta Susanne
TTITLE16=Måsen
TTITLE17=Dans på Vejby ängar
TTITLE18=Det är du och jag
TTITLE19=Till min livskamrat
TTITLE20=kul
EXTD=
EXTT0=
EXTT1=
EXTT2=
EXTT3=
EXTT4=
EXTT5=
EXTT6=
EXTT7=
EXTT8=
EXTT9=
EXTT10=
EXTT11=
EXTT12=
EXTT13=
EXTT14=
EXTT15=
EXTT16=
EXTT17=
EXTT18=
EXTT19=
EXTT20=
PLAYORDER=
